<?xml version="1.0" standalone="no"?>
<!DOCTYPE svg PUBLIC "-//W3C//DTD SVG 20010904//EN"
 "http://www.w3.org/TR/2001/REC-SVG-20010904/DTD/svg10.dtd">
<svg version="1.0" xmlns="http://www.w3.org/2000/svg"
 width="155.000000pt" height="155.000000pt" viewBox="0 0 155.000000 155.000000"
 preserveAspectRatio="xMidYMid meet">
<metadata>
Created by potrace 1.11, written by Peter Selinger 2001-2013
</metadata>
<g transform="translate(0.000000,155.000000) scale(0.100000,-0.100000)"
fill="#000000" stroke="none">
<path d="M111 1539 c7 -4 18 -5 26 -2 23 9 14 -6 -14 -22 -16 -9 -20 -14 -10
-11 14 4 16 1 13 -19 -3 -14 -1 -23 4 -20 5 3 13 -2 18 -11 5 -9 13 -17 18
-17 5 -1 9 -7 8 -12 -1 -6 7 -12 17 -12 11 -1 19 3 19 9 0 6 3 8 6 5 4 -4 1
-14 -7 -23 -13 -16 -12 -16 11 -4 22 12 23 11 13 -1 -10 -12 -8 -17 9 -28 11
-7 17 -8 14 -3 -3 6 5 9 17 8 13 0 24 -6 24 -13 0 -6 -6 -9 -13 -6 -6 2 -15 0
-18 -5 -3 -5 5 -8 18 -7 27 3 38 -3 55 -30 11 -19 12 -18 6 5 -5 25 -5 25 6 3
7 -13 19 -23 27 -23 10 0 13 -7 9 -21 -5 -17 -3 -18 11 -7 10 8 13 9 9 1 -4
-6 -2 -15 4 -18 5 -4 8 -13 5 -20 -2 -7 1 -16 9 -19 10 -3 12 2 9 22 -3 15 -2
24 1 20 6 -5 12 -27 14 -50 1 -4 7 -5 15 -2 8 3 17 0 22 -7 4 -7 3 -10 -4 -5
-6 3 -13 2 -16 -3 -7 -10 13 -9 29 1 6 4 17 2 25 -4 12 -8 11 -9 -5 -4 -19 6
-19 5 -2 -8 20 -16 22 -27 3 -20 -8 3 -17 1 -21 -5 -4 -7 0 -8 11 -4 13 5 15
3 9 -7 -6 -10 -4 -12 8 -7 10 3 17 3 17 -2 0 -5 -10 -11 -22 -14 -18 -5 -19
-8 -8 -21 8 -10 8 -16 2 -16 -6 0 -9 -9 -7 -19 3 -15 -2 -19 -21 -16 -28 3
-29 1 -8 -20 15 -14 14 -15 -9 -11 -21 4 -24 1 -19 -16 3 -14 1 -19 -6 -14
-11 7 -17 -13 -13 -38 1 -5 -6 -3 -15 5 -16 13 -16 12 -5 -9 6 -12 8 -22 4
-21 -22 4 -43 -2 -43 -12 0 -5 4 -8 9 -5 11 7 9 -13 -3 -32 -5 -9 -12 -10 -20
-3 -8 7 -17 6 -26 -1 -12 -8 -12 -9 2 -4 13 4 17 0 15 -14 -2 -11 -7 -23 -12
-27 -4 -5 -5 -2 -1 5 4 7 1 12 -8 12 -15 0 -16 -16 -2 -38 7 -11 4 -12 -12 -3
-15 8 -23 7 -32 -4 -8 -9 -8 -15 -2 -15 6 0 12 4 14 9 2 5 9 2 17 -6 11 -12
11 -14 0 -12 -27 3 -40 -1 -34 -11 4 -6 11 -7 17 -4 7 4 8 2 4 -5 -4 -6 -12
-8 -18 -5 -7 5 -9 1 -5 -9 4 -11 2 -14 -8 -10 -8 3 -12 10 -8 16 4 6 1 7 -6 3
-9 -6 -8 -13 6 -29 16 -19 16 -20 1 -14 -10 3 -20 2 -23 -3 -4 -6 2 -10 12
-11 11 0 13 -3 5 -6 -6 -2 -9 -10 -5 -16 4 -7 -2 -5 -12 3 -12 10 -16 10 -11
2 4 -7 2 -20 -6 -29 -7 -9 -8 -14 -3 -11 6 4 17 -3 25 -15 12 -20 12 -21 -3
-8 -10 7 -17 10 -18 5 0 -5 -2 -19 -5 -32 -3 -17 -1 -21 8 -16 10 6 10 5 1 -7
-19 -24 -24 -69 -8 -76 15 -5 15 -37 0 -50 -4 -5 -4 -1 0 7 8 13 7 13 -8 1
-19 -15 -23 -26 -5 -15 8 5 9 2 4 -11 -5 -15 -4 -16 8 -6 12 10 14 9 12 -11
-1 -13 -6 -30 -10 -37 -5 -8 -3 -11 7 -9 9 2 16 -1 15 -7 0 -5 -4 -9 -9 -8 -5
2 -9 -2 -9 -7 0 -6 6 -10 14 -10 8 0 18 -4 21 -10 3 -6 -1 -7 -9 -4 -20 8 -20
-3 -1 -23 9 -8 13 -18 10 -21 -3 -4 -10 0 -15 8 -5 8 -12 12 -15 8 -3 -3 1
-13 10 -21 18 -19 20 -31 3 -22 -7 4 -5 0 5 -8 9 -8 17 -17 17 -20 0 -4 -8 -3
-17 0 -17 6 -17 6 -1 -10 9 -9 23 -17 30 -18 7 0 4 -4 -7 -9 -13 -6 -15 -9 -5
-9 18 -1 53 -59 43 -73 -4 -7 -1 -8 6 -4 7 5 21 0 32 -10 15 -14 22 -15 32 -5
9 10 9 11 -4 6 -20 -8 -56 30 -38 41 7 4 10 3 6 -3 -15 -25 30 -38 63 -19 12
7 13 6 2 -5 -17 -18 -15 -34 2 -20 11 9 15 9 19 -1 3 -8 6 -5 7 7 l1 20 9 -20
c5 -12 9 -14 9 -6 1 11 5 10 17 -5 8 -10 13 -13 9 -6 -3 6 -1 12 4 12 6 0 11
-12 11 -26 0 -14 4 -23 10 -19 6 4 8 10 6 14 -3 4 1 8 9 8 12 0 12 -3 3 -14
-21 -25 11 -33 122 -32 114 1 107 -2 112 56 1 9 5 10 15 2 12 -11 17 -5 14 14
0 4 4 7 10 7 8 0 8 4 -1 15 -10 12 -7 13 17 6 22 -6 34 -4 52 10 13 10 27 17
31 14 4 -3 14 3 21 13 13 15 12 16 -3 3 -10 -7 -18 -9 -18 -4 0 5 12 15 26 21
14 7 23 8 19 3 -3 -5 -2 -12 3 -15 13 -8 11 27 -2 44 -6 8 3 4 20 -7 23 -16
31 -18 31 -8 0 8 -4 12 -8 9 -4 -2 -10 0 -13 5 -3 5 9 8 28 7 26 -1 32 2 28
14 -5 13 -3 13 10 2 13 -11 16 -10 14 5 -1 13 6 18 25 18 19 -1 25 3 21 14 -3
9 -1 12 6 7 11 -6 17 5 13 27 -2 11 6 8 25 -10 17 -17 17 -16 10 12 -7 29 -7
29 8 10 15 -20 15 -20 16 3 0 19 4 22 20 17 16 -5 18 -2 15 17 -4 22 -4 22 10
4 15 -20 15 -20 15 0 0 11 7 29 16 40 15 18 15 18 5 -3 -7 -13 -7 -24 -2 -28
13 -7 19 5 17 37 -1 14 1 25 5 22 9 -5 30 21 23 29 -8 8 18 3 33 -6 9 -6 11
-3 7 7 -3 9 -11 16 -17 16 -6 0 -7 3 -4 6 4 4 14 1 23 -7 16 -13 16 -12 5 9
-6 12 -7 22 -2 22 5 0 11 -5 13 -11 2 -7 12 0 22 15 14 22 15 30 5 43 -11 12
-10 14 6 11 10 -1 20 4 22 12 4 13 3 13 -6 0 -9 -13 -11 -13 -11 2 0 9 4 18 9
20 5 2 11 10 13 18 2 8 8 18 13 22 6 5 5 8 -2 8 -7 0 -13 9 -13 21 0 11 -4 18
-8 15 -5 -3 -9 2 -9 11 0 13 4 11 18 -6 17 -21 18 -21 16 -2 0 11 -5 17 -11
14 -5 -4 -7 1 -3 10 4 11 2 14 -9 10 -17 -6 -19 13 -1 20 6 3 1 6 -13 6 -42 1
-59 4 -58 10 3 33 -4 41 -29 36 -15 -2 -30 0 -34 6 -4 6 -16 8 -28 4 -12 -3
-18 -11 -15 -17 4 -7 2 -8 -5 -4 -9 6 -9 11 0 22 6 8 9 17 5 21 -3 3 -6 2 -6
-3 0 -5 -9 -10 -20 -11 -11 -1 -18 2 -15 7 9 14 -27 21 -43 8 -13 -11 -14 -11
-7 1 5 9 2 19 -10 28 -11 7 -14 13 -9 13 6 0 16 -6 24 -12 12 -11 12 -10 2 4
-10 13 -10 17 0 22 7 3 0 3 -17 0 l-30 -5 25 15 25 15 -25 1 -25 1 28 15 c24
13 26 18 16 30 -7 8 -8 14 -3 13 30 -5 46 2 39 18 -4 13 -1 12 15 -4 23 -26
40 -32 20 -8 -11 13 -10 14 5 9 14 -6 16 -4 10 6 -5 8 -4 11 3 6 5 -3 12 -3
15 1 2 5 2 3 1 -4 -2 -7 1 -15 6 -18 6 -4 10 -1 10 5 0 13 32 9 42 -5 5 -6 8
-5 8 3 0 6 7 12 15 12 8 0 15 5 15 10 0 7 -7 7 -22 0 -22 -11 -22 -10 -4 4 10
9 24 12 30 8 20 -12 35 -10 29 4 -3 8 -10 11 -16 7 -5 -3 -7 -1 -4 4 4 6 19 8
34 6 16 -3 24 -1 18 4 -23 19 -34 50 -22 63 9 10 6 10 -13 0 -22 -12 -23 -11
-13 1 10 13 8 15 -17 13 -27 -2 -35 6 -31 29 1 5 -3 6 -9 2 -6 -3 -8 -10 -5
-15 3 -5 0 -12 -6 -16 -8 -4 -9 -3 -5 4 7 11 -6 17 -27 13 -5 -1 -5 4 -1 10 5
9 2 10 -10 6 -10 -4 -15 -3 -11 3 4 6 -6 8 -24 6 -17 -2 -28 1 -25 6 3 5 13 7
21 4 8 -3 11 -1 8 5 -4 5 -15 7 -26 4 -11 -4 -19 -2 -19 4 0 6 -5 11 -11 11
-5 0 -7 -5 -3 -12 4 -6 -5 -3 -19 8 -15 10 -27 25 -27 32 0 6 -10 12 -22 12
-13 0 -18 3 -12 8 16 10 14 44 -2 38 -17 -6 -28 10 -14 19 8 5 7 11 -1 21 -8
10 -8 14 -1 14 6 0 9 8 6 18 -5 13 -4 14 4 3 6 -8 8 -20 5 -28 -3 -7 -1 -13 4
-13 5 0 10 17 11 37 3 40 17 63 38 63 8 0 14 5 14 10 0 19 2 25 11 37 7 7 6
14 -1 18 -6 3 -8 11 -5 16 4 5 -5 13 -19 19 -14 5 -26 12 -26 15 0 2 11 1 23
-4 15 -6 29 -5 38 1 11 8 11 9 -3 4 -10 -3 -29 6 -47 23 -21 20 -31 24 -35 15
-3 -7 -2 -15 2 -17 4 -2 0 -2 -8 1 -8 2 -21 5 -28 5 -7 0 -11 5 -9 12 3 6 -3
11 -13 11 -10 0 -16 -6 -13 -13 7 -18 -8 -16 -22 4 -9 13 -14 13 -20 3 -5 -9
-4 -11 3 -6 7 4 12 3 12 -2 0 -18 -30 -22 -31 -4 0 13 -3 11 -9 -5 -5 -13 -12
-23 -16 -23 -3 0 -4 7 -1 15 4 8 2 17 -4 20 -5 4 -9 3 -8 -2 3 -19 -2 -33 -12
-33 -5 0 -7 4 -4 10 3 6 -1 7 -10 4 -11 -4 -12 -10 -6 -18 7 -8 4 -12 -10 -13
-11 -1 -17 2 -14 7 6 9 -25 23 -33 15 -3 -3 0 -5 6 -5 7 0 12 -5 12 -11 0 -6
-7 -9 -15 -5 -9 3 -15 0 -15 -9 0 -8 -5 -15 -11 -15 -6 0 -8 8 -5 18 6 16 5
16 -8 0 -15 -20 -31 -25 -20 -6 5 7 3 8 -5 4 -7 -5 -10 -14 -7 -21 5 -14 -11
-15 -33 -1 -10 6 -12 5 -7 -2 4 -7 3 -12 -3 -12 -5 0 -11 6 -14 13 -4 10 -7
10 -18 0 -19 -19 -34 -16 -18 4 9 11 10 14 2 9 -7 -4 -22 -2 -33 4 -16 9 -25
8 -35 0 -11 -10 -17 -5 -30 22 -8 18 -13 25 -10 15 4 -15 1 -16 -15 -7 -11 6
-25 8 -30 5 -5 -3 -12 0 -16 6 -4 7 -3 9 4 5 12 -7 10 20 -3 31 -4 4 -5 2 0
-6 6 -11 3 -13 -16 -7 -48 15 -79 16 -79 3 0 -8 -3 -9 -8 -1 -4 6 -59 10 -150
10 -78 0 -137 -3 -131 -7z m353 -14 c11 -8 16 -15 10 -15 -5 0 -18 7 -28 15
-11 8 -16 15 -10 15 5 0 18 -7 28 -15z m-317 -32 c-4 -3 -1 -13 6 -22 11 -14
10 -14 -5 -2 -16 12 -16 31 -1 31 4 0 3 -3 0 -7z m57 -58 c-4 -8 -8 -15 -10
-15 -2 0 -4 7 -4 15 0 8 4 15 10 15 5 0 7 -7 4 -15z m930 9 c9 -3 13 -11 9
-18 -4 -6 -8 -15 -8 -20 0 -5 -7 -11 -15 -13 -9 -3 -11 -1 -5 4 16 13 17 35 3
44 -15 10 -6 12 16 3z m272 -839 c-1 -8 -5 -17 -8 -21 -5 -4 -4 16 1 34 3 9 9
-1 7 -13z m-1176 -94 c0 -6 -4 -12 -8 -15 -5 -3 -9 1 -9 9 0 8 4 15 9 15 4 0
8 -4 8 -9z m1145 -10 c-3 -6 -11 -11 -16 -11 -5 0 -4 6 3 14 14 16 24 13 13
-3z m-526 -387 c-9 -11 -39 -9 -39 3 0 3 6 3 14 0 21 -8 28 4 13 22 -11 14
-10 14 6 2 13 -10 14 -17 6 -27z"/>
<path d="M1050 1540 c0 -5 5 -10 11 -10 5 0 7 5 4 10 -3 6 -8 10 -11 10 -2 0
-4 -4 -4 -10z"/>
<path d="M1115 1530 c-3 -5 -1 -10 4 -10 6 0 11 5 11 10 0 6 -2 10 -4 10 -3 0
-8 -4 -11 -10z"/>
<path d="M581 1484 c0 -11 3 -14 6 -6 3 7 2 16 -1 19 -3 4 -6 -2 -5 -13z"/>
<path d="M1107 1363 c-10 -9 -9 -23 1 -23 5 0 9 7 9 15 0 17 -1 18 -10 8z"/>
<path d="M157 1283 c-10 -9 -9 -23 1 -23 5 0 9 7 9 15 0 17 -1 18 -10 8z"/>
<path d="M1240 1270 c-9 -6 -10 -10 -3 -10 6 0 15 5 18 10 8 12 4 12 -15 0z"/>
<path d="M176 1253 c-6 -14 -5 -15 5 -6 7 7 10 15 7 18 -3 3 -9 -2 -12 -12z"/>
<path d="M219 1238 c-5 -19 -6 -37 -1 -36 19 3 40 -15 35 -30 -7 -18 -5 -17
17 12 8 11 10 17 4 13 -7 -4 -23 2 -35 13 -13 11 -19 19 -12 20 6 0 15 -4 18
-10 3 -5 11 -10 18 -10 6 0 2 7 -9 15 -17 13 -33 19 -35 13z"/>
<path d="M1120 1186 c0 -2 7 -9 15 -16 9 -7 15 -8 15 -2 0 5 -7 12 -15 16 -8
3 -15 4 -15 2z"/>
<path d="M476 1058 c3 -5 10 -6 15 -3 13 9 11 12 -6 12 -8 0 -12 -4 -9 -9z"/>
<path d="M1392 1062 c-10 -7 -8 -12 6 -25 15 -14 19 -14 19 -2 0 8 -5 11 -10
8 -6 -4 -8 0 -4 10 7 19 7 20 -11 9z"/>
<path d="M36 933 c-6 -14 -5 -15 5 -6 7 7 10 15 7 18 -3 3 -9 -2 -12 -12z"/>
<path d="M360 879 c0 -5 5 -7 10 -4 6 3 10 8 10 11 0 2 -4 4 -10 4 -5 0 -10
-5 -10 -11z"/>
<path d="M1490 821 c0 -6 4 -13 10 -16 6 -3 7 1 4 9 -7 18 -14 21 -14 7z"/>
<path d="M1340 751 c0 -17 38 -33 46 -19 4 6 3 8 -4 4 -6 -3 -18 1 -26 10 -9
8 -16 11 -16 5z"/>
<path d="M190 470 c0 -6 7 -10 15 -10 8 0 15 2 15 4 0 2 -7 6 -15 10 -8 3 -15
1 -15 -4z"/>
<path d="M1294 406 c-10 -8 -17 -16 -14 -19 3 -2 14 4 24 14 23 22 18 25 -10
5z"/>
<path d="M1057 219 c7 -7 15 -10 18 -7 3 3 -2 9 -12 12 -14 6 -15 5 -6 -5z"/>
</g>
</svg>
